<?xml version="1.0" standalone="no"?><!DOCTYPE svg PUBLIC "-//W3C//DTD SVG 1.1//EN" "http://www.w3.org/Graphics/SVG/1.1/DTD/svg11.dtd">
<svg t="1715412062909" class="icon" viewBox="0 0 1024 1024" version="1.1" xmlns="http://www.w3.org/2000/svg" p-id="4294"
     width="128" height="128"><path d="M509.13 511.2m-443.8 0a443.8 443.8 0 1 0 887.6 0 443.8 443.8 0 1 0-887.6 0Z" fill="#74BDA0" p-id="4295"></path><path d="M816.96 526.15H790.4c2.97-1.07 5.11-3.89 5.11-7.23 0-4.26-3.45-7.71-7.71-7.71h-30.13c-4.26 0-7.71 3.45-7.71 7.71s3.45 7.71 7.71 7.71h10.65c-2.97 1.07-5.11 3.89-5.11 7.23 0 4.26 3.45 7.71 7.71 7.71h46.03c4.26 0 7.71-3.45 7.71-7.71a7.693 7.693 0 0 0-7.7-7.71zM228.12 594.4h-26.56c2.97-1.07 5.11-3.89 5.11-7.23 0-4.26-3.45-7.71-7.71-7.71h-30.13c-4.26 0-7.71 3.45-7.71 7.71s3.45 7.71 7.71 7.71h10.65c-2.97 1.07-5.11 3.89-5.11 7.23 0 4.26 3.45 7.71 7.71 7.71h46.03c4.26 0 7.71-3.45 7.71-7.71a7.693 7.693 0 0 0-7.7-7.71z" fill="#ECF1C9" p-id="4296"></path><path d="M530.2 228.27c-1.53-7.53-7.01-13.61-14.18-16.04l-4.67-24.62c-0.47-2.46-3.99-2.46-4.45 0l-4.67 24.62c-7.16 2.43-12.64 8.51-14.18 16.04-28.92 7.75-51.48 31.06-58.15 60.41h158.45c-6.67-29.35-29.22-52.66-58.15-60.41z" fill="#E8B44F" p-id="4297"></path><path d="M367.62 814.32h283.03v145.63H367.62z" fill="#F2DE97" p-id="4298"></path><path d="M544.51 959.95v-67.08c0-19.54-15.84-35.38-35.38-35.38-19.54 0-35.38 15.84-35.38 35.38v67.08h70.76zM650.65 816.25H367.62l-23.59-23.59h330.2z" fill="#A45324" p-id="4299"></path><path d="M377.05 768.91h264.16l33.02 23.58h-330.2z" fill="#E8B44F" p-id="4300"></path><path d="M377.45 670.45h263.38v98.46H377.45z" fill="#F2DE97" p-id="4301"></path><path d="M541.56 768.91V749c0-19.54-14.52-35.38-32.43-35.38S476.7 729.46 476.7 749v19.91h64.86zM640.82 672.37H377.45l-21.62-23.58h306.61z" fill="#A45324" p-id="4302"></path><path d="M386.88 625.03h244.51l31.05 23.59H355.83z" fill="#E8B44F" p-id="4303"></path><path d="M387.27 536.06h243.72v89.51H387.27z" fill="#F2DE97" p-id="4304"></path><path d="M538.62 625.57v-18.1c0-17.76-13.2-32.16-29.48-32.16s-29.48 14.4-29.48 32.16v18.1h58.96zM630.99 537.81H387.27l-19.65-21.44h283.03z" fill="#A45324" p-id="4305"></path><path d="M396.71 494.78h224.85l29.09 21.44H367.62z" fill="#E8B44F" p-id="4306"></path><path d="M397.1 414.22h224.07v80.56H397.1z" fill="#F2DE97" p-id="4307"></path><path d="M535.67 494.78v-16.29c0-15.99-11.88-28.95-26.53-28.95s-26.53 12.96-26.53 28.95v16.29h53.06zM621.17 415.79H397.1l-17.69-19.29h259.45z" fill="#A45324" p-id="4308"></path><path d="M406.54 377.06h205.19l27.13 19.3H379.41z" fill="#E8B44F" p-id="4309"></path><path d="M406.93 305.45h204.41v71.61H406.93z" fill="#F2DE97" p-id="4310"></path><path d="M532.72 377.06v-14.48c0-14.21-10.56-25.73-23.59-25.73s-23.59 11.52-23.59 25.73v14.48h47.18zM611.34 306.85H406.93l-15.72-17.15h235.85z" fill="#A45324" p-id="4311"></path><path d="M435.45 272.43h147.37l44.24 17.15H391.21z" fill="#E8B44F" p-id="4312"></path><path d="M743.62 294.7c-1.21-0.83-12.16-7.99-25.09-2.95-3.97 1.54-7.01 3.8-9.35 6.23-0.29-3.36-1.24-7.03-3.35-10.72-6.9-12.06-19.91-13.38-21.37-13.49a4.396 4.396 0 0 0-4.72 4.06 4.396 4.396 0 0 0 4.06 4.72c0.39 0.03 9.66 0.82 14.39 9.08 4.8 8.38 0.62 16.86 0.43 17.21-0.21 0.41-0.33 0.85-0.4 1.28l-8.62-3.05a2.939 2.939 0 0 0-1.96 5.54l29.07 10.28a2.939 2.939 0 0 0 1.96-5.54l-8.62-3.05c0.22-0.38 0.4-0.79 0.5-1.25 0.08-0.39 2.16-9.61 11.16-13.11 8.86-3.45 16.57 1.77 16.9 1.99 2 1.38 4.74 0.88 6.13-1.12 1.39-1.98 0.88-4.73-1.12-6.11zM797.02 266.87c-0.72-0.5-7.29-4.79-15.06-1.77-2.38 0.93-4.2 2.28-5.61 3.74a15.37 15.37 0 0 0-2.01-6.43c-4.14-7.23-11.95-8.03-12.82-8.09-1.46-0.11-2.72 0.98-2.83 2.43-0.11 1.46 0.98 2.72 2.44 2.83 0.24 0.02 5.8 0.49 8.63 5.45 2.88 5.03 0.37 10.11 0.26 10.33-0.13 0.25-0.2 0.51-0.24 0.77l-5.17-1.83c-0.92-0.32-1.92 0.16-2.25 1.07s0.16 1.92 1.07 2.25l17.44 6.17c0.92 0.32 1.92-0.16 2.25-1.07 0.32-0.92-0.16-1.92-1.07-2.25l-5.17-1.83c0.13-0.23 0.24-0.48 0.3-0.75 0.05-0.23 1.3-5.77 6.7-7.87 5.32-2.07 9.95 1.06 10.14 1.19 1.2 0.83 2.85 0.53 3.68-0.67 0.83-1.2 0.52-2.85-0.68-3.67z" fill="#ECF1C9" p-id="4313"></path><path d="M323.05 428.88h-41.83c4.68-1.69 8.05-6.13 8.05-11.39 0-6.71-5.44-12.15-12.15-12.15h-47.45c-6.71 0-12.15 5.44-12.15 12.15s5.44 12.15 12.15 12.15h16.78c-4.68 1.69-8.05 6.13-8.05 11.39 0 6.71 5.44 12.15 12.15 12.15h72.5c6.71 0 12.15-5.44 12.15-12.15s-5.44-12.15-12.15-12.15z" fill="#ECF1C9" p-id="4314"></path></svg>