<?xml version="1.0" standalone="no"?><!DOCTYPE svg PUBLIC "-//W3C//DTD SVG 1.1//EN" "http://www.w3.org/Graphics/SVG/1.1/DTD/svg11.dtd">
<svg t="1715411076908" class="icon" viewBox="0 0 1024 1024" version="1.1" xmlns="http://www.w3.org/2000/svg"
     p-id="22203"
     width="128" height="128"><path d="M344 514.108h324v340H344z" fill="#FFAB64" p-id="22204"></path><path d="M700 446.696a16.6 16.6 0 0 0-16.592-16.588H328.592A16.6 16.6 0 0 0 312 446.696v50.82a16.6 16.6 0 0 0 16.592 16.592h354.816a16.6 16.6 0 0 0 16.592-16.592v-50.82z" fill="#FFDA7E" p-id="22205"></path><path d="M112 646.108h232v208H112z" fill="#93A4CD" p-id="22206"></path><path d="M668 690.108h232v164h-232z" fill="#DA6353" p-id="22207"></path><path d="M344 558.108H97.6a17.608 17.608 0 0 0-17.6 17.6v52.8c0 9.712 7.888 17.6 17.6 17.6H344v-88z" fill="#C2D8FA" p-id="22208"></path><path d="M668 602.108h246.4c9.712 0 17.6 7.884 17.6 17.6v52.8c0 9.712-7.888 17.6-17.6 17.6H668v-88z" fill="#F6A187" p-id="22209"></path><path d="M960 876.108c0-12.144-9.856-22-22-22h-852a22.008 22.008 0 0 0-22 22v44c0 12.14 9.856 22 22 22h852c12.144 0 22-9.86 22-22v-44z" fill="#37466E" p-id="22210"></path><path d="M489.824 92.74a19.524 19.524 0 0 1 34.984 0l35.8 72.144 79.676 11.756a19.52 19.52 0 0 1 10.812 33.272l-57.548 56.34 13.436 79.412a19.52 19.52 0 0 1-28.3 20.56l-71.368-37.32-71.372 37.32a19.516 19.516 0 0 1-28.3-20.56l13.44-79.412-57.548-56.34a19.532 19.532 0 0 1 10.808-33.272l79.676-11.756 35.804-72.144z" fill="#FFB550" p-id="22211"></path><path d="M668 542.272v267.836H398.132A22.14 22.14 0 0 1 376 787.976v-223.572a22.14 22.14 0 0 1 22.132-22.132H668z" fill="#FFC663" p-id="22212"></path><path d="M112 676.192h177.56a22.448 22.448 0 0 1 22.44 22.44v89.036a22.452 22.452 0 0 1-22.44 22.44H112v-133.916z" fill="#A9B7E2" p-id="22213"></path><path d="M900 714.108v88h-156c-24.284 0-44-19.716-44-44s19.716-44 44-44h156z" fill="#E57F5E" p-id="22214"></path><path d="M366.82 213.128l-3.284-3.216a19.532 19.532 0 0 1 10.808-33.272l79.676-11.756 35.804-72.144a19.524 19.524 0 0 1 34.984 0l35.8 72.144 79.676 11.756a19.52 19.52 0 0 1 10.812 33.272l-3.288 3.216c-38.688 18.864-87.488 30.12-140.492 30.12-53.008 0-101.804-11.256-140.496-30.12z" fill="#FFDC83" p-id="22215"></path></svg>