<?xml version="1.0" standalone="no"?><!DOCTYPE svg PUBLIC "-//W3C//DTD SVG 1.1//EN" "http://www.w3.org/Graphics/SVG/1.1/DTD/svg11.dtd"><svg t="1715411877459" class="icon" viewBox="0 0 1024 1024" version="1.1" xmlns="http://www.w3.org/2000/svg" p-id="19264" xmlns:xlink="http://www.w3.org/1999/xlink" width="128" height="128"><path d="M828.2 624.6c-5.5 0-9.9-4.4-9.9-9.9V440.2c0-137.6-90.6-254.9-215.1-295.6-19.5-26.1-55.1-43.5-95.7-43.5s-76.2 17.5-95.7 43.5c-124.4 40.6-215 158-215 295.6v174.6c0 5.5-4.4 9.9-9.9 9.9-10.2 0-18.5 8.3-18.5 18.5V771c0 10.2 8.3 18.5 18.5 18.5 5.5 0 9.9 4.4 9.9 9.9v1.8c0 48.6 39.7 88.4 88.4 88.4H730c48.6 0 88.4-39.7 88.4-88.4v-1.8c0-5.5 4.4-9.9 9.9-9.9 10.2 0 18.5-8.3 18.5-18.5V643.1c-0.1-10.2-8.4-18.5-18.6-18.5z" fill="#FFA820" p-id="19265"></path><path d="M168.6 747.4V771c0 10.2 8.3 18.5 18.5 18.5 5.5 0 9.9 4.4 9.9 9.9v1.8c0 48.6 39.7 88.4 88.4 88.4h58.7c-71.5-29.7-132.3-79.4-175.5-142.2zM598.1 138.3c-20.3-22.5-53.2-37.2-90.5-37.2-33.4 0-63.4 11.8-83.8 30.5 23.3-4.3 47.5-6.5 72.1-6.5 35.3 0 69.6 4.6 102.2 13.2zM846.7 771v-62.1c-43.2 80.9-113.5 145.2-198.8 180.5H730c48.6 0 88.4-39.7 88.4-88.4v-1.8c0-5.5 4.4-9.9 9.9-9.9 10.1 0.1 18.4-8.2 18.4-18.3z" fill="#FEAC33" p-id="19266"></path><path d="M846.7 708.9v-65.8c0-10.2-8.3-18.5-18.5-18.5-5.5 0-9.9-4.4-9.9-9.9v-67.4c-21.5 168.5-165.5 298.8-339.9 298.8-136.9 0-255.1-80.4-309.9-196.5v97.7c43.3 62.8 104.1 112.5 175.4 142H648c85.2-35.2 155.5-99.5 198.7-180.4zM818.4 459.7v-19.5c0-137.6-90.6-254.9-215.1-295.6-1.7-2.1-3.3-4.3-5.2-6.3-32.6-8.7-66.9-13.3-102.2-13.3-24.6 0-48.6 2.2-72.1 6.5-4.4 4-8.4 8.4-11.9 13.1-44.1 14.4-84 38.4-117.1 69.6 53-33.7 116-53.3 183.6-53.3 174.5 0 318.4 130.3 340 298.8z" fill="#FEB133" p-id="19267"></path><path d="M478.5 846.1c174.4 0 318.3-130.3 339.9-298.8v-87.7c-21.5-168.5-165.5-298.8-339.9-298.8-67.6 0-130.4 19.5-183.6 53.3-35 33-62.4 73.9-79.3 119.8 50.7-82.3 141.7-137.2 245.4-137.2 159.1 0 287.9 129 287.9 287.9s-128.8 288-287.8 288c-118.2 0-219.9-71.3-264.2-173.2v15.1c0 5.5-4.4 9.9-9.9 9.9-10.2 0-18.5 8.3-18.5 18.5v6.6c54.9 116.4 173.1 196.6 310 196.6z" fill="#FEB633" p-id="19268"></path><path d="M461.1 772.8c159.1 0 287.9-129 287.9-287.9s-128.9-288-287.9-288c-103.8 0-194.7 54.9-245.4 137.2-12.1 33.2-18.8 68.9-18.8 106.1v159.3c44.3 101.9 146 173.3 264.2 173.3z m-17.4-540.1c128.9 0 233.4 104.5 233.4 233.4S572.6 699.4 443.7 699.4 210.4 594.9 210.4 466s104.4-233.3 233.3-233.3z" fill="#FFBC34" p-id="19269"></path><path d="M443.7 699.4c128.9 0 233.4-104.5 233.4-233.4S572.6 232.7 443.7 232.7 210.4 337.1 210.4 466s104.4 233.4 233.3 233.4z m-17.4-430.8c98.7 0 178.7 80 178.7 178.7S525.1 626 426.3 626s-178.7-80-178.7-178.7 80-178.7 178.7-178.7z" fill="#FFC134" p-id="19270"></path><path d="M426.3 626C525 626 605 546 605 447.3s-80-178.7-178.7-178.7-178.7 80-178.7 178.7S327.6 626 426.3 626z m-17.4-321.6c68.5 0 124.1 55.6 124.1 124.1s-55.6 124.1-124.1 124.1S284.8 497 284.8 428.5s55.6-124.1 124.1-124.1z" fill="#FFC634" p-id="19271"></path><path d="M284.8 428.5a124.1 124.1 0 1 0 248.2 0 124.1 124.1 0 1 0-248.2 0Z" fill="#FFCB34" p-id="19272"></path><path d="M730 898.4H285.2c-53.7 0-97.4-43.7-97.4-97.4v-1.8c0-0.5-0.4-0.9-0.9-0.9-15.1 0-27.5-12.3-27.5-27.5V643.1c0-15.1 12.3-27.5 27.5-27.5 0.5 0 0.9-0.4 0.9-0.9V440.2c0-68.6 21.7-134.1 62.6-189.5 19.7-26.6 43.2-49.9 70-69.4 26.4-19.1 55.3-34.1 85.9-44.4C428.8 108.8 466.4 92 507.6 92s78.8 16.7 101.1 44.9c30.7 10.3 59.6 25.2 86 44.4 26.8 19.4 50.4 42.8 70.1 69.4 41 55.3 62.6 120.9 62.6 189.5v174.6c0 0.5 0.4 0.9 0.9 0.9 15.1 0 27.5 12.3 27.5 27.5V771c0 15.1-12.3 27.5-27.5 27.5-0.5 0-0.9 0.4-0.9 0.9v1.8c0 53.5-43.7 97.2-97.4 97.2zM507.6 110c-36.1 0-70 15.3-88.5 39.9l-1.7 2.3-2.7 0.9c-59.2 19.3-112.4 57.8-149.7 108.2-38.7 52.2-59.1 114.1-59.1 178.8v174.6c0 10.4-8.5 18.9-18.9 18.9-5.2 0-9.5 4.2-9.5 9.5V771c0 5.2 4.2 9.5 9.5 9.5 10.4 0 18.9 8.5 18.9 18.9v1.8c0 43.8 35.6 79.4 79.4 79.4H730c43.8 0 79.4-35.6 79.4-79.4v-1.8c0-10.4 8.5-18.9 18.9-18.9 5.2 0 9.5-4.2 9.5-9.5V643.1c0-5.2-4.2-9.5-9.5-9.5-10.4 0-18.9-8.5-18.9-18.9V440.2c0-64.7-20.4-126.6-59.1-178.8-37.4-50.5-90.6-88.9-149.8-108.2l-2.7-0.9-1.7-2.3c-18.5-24.6-52.4-40-88.5-40z" fill="#FFA820" p-id="19273"></path><path d="M686.5 797.8H328.7c-28 0-51-22.9-51-51V679c0-28 22.9-51 51-51h358c28 0 51 22.9 51 51v67.9c-0.2 28-23.1 50.9-51.2 50.9zM648.1 428.5c24.1 0 41.4-22.7 35.3-45.9C663 304.6 592.1 247 507.8 247c-84.7 0-155.7 57.9-175.9 136.1-6 23 11.7 45.4 35.5 45.4h280.7z" fill="#FFE3B4" p-id="19274"></path><path d="M259.3 552.6c-9.9 0-18-8-18-18v-10.5c0-9.9 8-18 18-18 9.9 0 18 8 18 18v10.5c0 10-8 18-18 18zM259.3 481.9c-9.9 0-18-8.1-18-18V436c0-73.6 32.7-117.6 34-119.5 6-7.9 17.3-9.5 25.2-3.5 7.9 6 9.5 17.3 3.5 25.2-0.2 0.3-26.8 36.9-26.8 97.7v27.9c0.1 10.1-8 18.1-17.9 18.1z" fill="#FFFFFF" p-id="19275"></path></svg>