<?xml version="1.0" standalone="no"?><!DOCTYPE svg PUBLIC "-//W3C//DTD SVG 1.1//EN" "http://www.w3.org/Graphics/SVG/1.1/DTD/svg11.dtd">
<svg t="1715586244756" class="icon" viewBox="0 0 1024 1024" version="1.1" xmlns="http://www.w3.org/2000/svg"
     p-id="15155"
     width="128" height="128"><path d="M731.13098398 537.70054727h-154.20328492c-9.46862316 0-18.26091479-5.4106418-22.99522638-13.52660322-4.73431157-8.11596271-4.05798134-18.26091479 1.35266046-26.37687879l306.37757918-459.90453519c27.72953794-41.25614246 83.18861385-52.07742477 124.44475761-25.02421704 41.25614246 27.72953794 52.753755 83.18861385 25.02421704 124.44475631l-259.03446599 388.8898654c-4.73431157 7.43963249-12.85027428 11.49761383-20.966237 11.49761253z" fill="#6E97A0" p-id="15156"></path><path d="M339.53579898 261.08149671c-5.4106418 0-10.14495338-1.35266046-14.87926366-4.73431158-11.49761383-8.11596271-14.20293474-24.34788682-6.08697203-35.84550066 1.35266046-2.02899068 33.14017975-48.69577493 4.73431158-83.86494537-42.60880291-52.753755-22.31889614-107.53650196-6.08697203-128.50273765 8.79229293-11.49761383 25.02421706-13.52660451 35.84550065-4.73431158 10.82128361 8.79229293 13.52660451 24.34788682 4.73431157 35.84550065-4.05798134 5.4106418-20.96623569 32.46384953 4.73431159 64.92769906 52.753755 64.92769906-0.67633022 142.70567239-2.7053209 145.4109933-4.05798134 7.43963249-12.17394405 11.49761383-20.28990677 11.49761383zM483.59413183 359.14937552c-4.73431157 0-9.46862316-1.35266046-14.20293474-4.05798135-12.17394405-7.43963249-15.55559519-23.6715566-7.43963119-35.84550067 0.67633022-0.67633022 50.0484341-79.80696402 6.08697074-138.64769103-52.753755-71.01467108-28.40586817-143.38200262-8.11596141-172.46420102 8.11596271-11.49761383 24.34788682-14.20293474 35.84549936-6.08697203 11.49761383 8.11596271 14.20293474 24.34788682 6.08697203 35.84550065-1.35266046 2.70532091-35.84550065 54.10641545 6.76330225 111.59448333 65.60402928 87.92292542-1.35266046 193.43043671-4.73431158 197.48841807-4.05798134 8.11596271-12.17394405 12.17394405-20.28990546 12.17394405z" fill="#F2CB51" p-id="15157"></path><path d="M817.02492003 1026.01095065H206.97507997c-14.20293474 0-25.70054727-11.49761383-25.70054728-25.70054728 0-14.20293474 11.49761383-25.70054727 25.70054728-25.70054727h610.04984006c14.20293474 0 25.70054727 11.49761383 25.70054728 25.70054727 0 14.20293474-11.49761383 25.70054727-25.70054728 25.70054728z" fill="#7BD4EF" p-id="15158"></path><path d="M512 1026.01095065c-123.09209585 0-241.44988143-43.96146336-334.78344865-123.7684261A515.77617267 515.77617267 0 0 1 4.75235033 595.18861385c-4.73431157-27.05320772 3.38165113-54.78274567 20.96623699-75.74898136 17.58458457-20.96623569 43.96146336-33.14017975 71.6910013-33.14017976h12.85027299c10.82128361-38.55082156 28.40586817-69.66201063 52.75375629-94.00989746 53.43008523-53.43008523 130.53172834-68.98568041 185.99080423-72.36733154 18.93724502-1.35266046 37.87449134 6.08697203 51.40109455 19.61357525s20.28990547 32.46384953 19.61357654 51.40109584c-0.67633022 11.49761383-2.02899068 22.99522638-3.38165113 34.49284021 23.6715566 10.14495338 43.96146336 23.6715566 60.19338748 39.90348071 6.76330225 6.76330225 12.85027428 14.20293474 18.26091608 21.6425672h432.85132617c27.72953794 0 53.43008523 12.17394405 71.69100131 33.14017977 17.58458457 20.96623569 25.70054727 48.69577493 20.966237 75.74898136-19.61357524 119.03411451-80.48329424 227.92327693-172.46420102 307.05391071-94.68622768 79.13063379-213.04401325 123.09209585-336.13610911 123.09209587z" fill="#7BD4EF" p-id="15159"></path><path d="M503.88403729 694.6091531c-4.73431157 0-116.3287936-1.35266046-186.66713445-71.69100001-10.82128361-10.82128361-20.28990547-22.99522638-28.40586818-37.1981611-6.08697203-10.82128361-4.05798134-25.02421706 6.08697203-33.14017977 5.4106418-4.73431157 10.14495338-8.79229293 14.87926366-13.5266045 10.82128361-10.82128361 19.61357524-22.99522638 27.72953795-37.87449133l6.08697203-11.49761253c7.43963249-16.23192541 13.52660451-34.4928402 17.58458586-54.10641675 1.35266046-7.43963249 6.08697203-13.52660451 12.17394276-16.90825433s13.52660451-4.73431157 20.966237-2.02899069c33.14017975 10.82128361 60.19338748 26.3768775 81.8359534 48.01944342 72.36733153 72.36733153 54.10641545 202.89905987 53.43008522 208.30970168-2.02899068 12.17394405-12.85027428 21.64256592-25.70054728 21.64256591z" fill="#0B9682" p-id="15160"></path><path d="M125.8154568 660.79264443c-12.85027428 0-23.6715566-9.46862316-25.70054858-22.31889744-0.67633022-6.76330225-22.31889614-161.64291741 62.89870968-246.18419172 53.43008523-53.43008523 130.53172834-68.98568041 185.99080423-72.36733154 18.93724502-1.35266046 37.87449134 6.08697203 51.40109455 19.61357525s20.28990547 32.46384953 19.61357654 51.40109584c-3.38165113 55.4590759-18.93724502 131.88438879-72.36733153 185.99080424-84.5412743 82.51228491-216.42566309 83.86494407-221.83630489 83.86494537z" fill="#16C4AF" p-id="15161"></path></svg>