<?xml version="1.0" standalone="no"?><!DOCTYPE svg PUBLIC "-//W3C//DTD SVG 1.1//EN" "http://www.w3.org/Graphics/SVG/1.1/DTD/svg11.dtd">
<svg t="1715585942962" class="icon" viewBox="0 0 1111 1024" version="1.1" xmlns="http://www.w3.org/2000/svg" p-id="2158"
     width="138.875" height="128"><path d="M28.892665 777.600399s136.633528-58.794596 266.72208 23.416469c214.08461 135.280459 410.151805 205.309494 596.866517 205.309494 0 0 1.978919-192.215136 138.2863-427.697629 121.626362-210.13118 48.424005-398.53833-68.261672-515.237228 0 0-388.859699 147.960523-727.290031-45.757534 0 0-5.8442 217.398968-136.298566 405.193491-121.956916 175.559605-70.024628 354.772938-70.024628 354.772937z" fill="#FFEBB0" p-id="2159"></path><path d="M892.476855 1023.955926c-186.437046 0-384.752011-68.045709-606.285112-208.033262-43.108691-27.246491-91.726621-41.054847-144.513943-41.054847-60.676552 0-105.407163 18.749041-105.852309 18.938559a17.673638 17.673638 0 0 1-14.482687-0.282073 17.616342 17.616342 0 0 1-9.387743-11.01407c-2.216918-7.646823-52.831396-189.354739 72.475138-369.73603 125.742865-181.015955 133.094393-393.491867 133.151689-395.620637A17.633971 17.633971 0 0 1 243.96453 2.335917c112.992283 64.678463 243.98435 97.473859 389.344513 97.473859h0.052888c181.34651-0.008815 321.479506-52.364212 322.876649-52.893099a17.629564 17.629564 0 0 1 18.722597 4.015133c151.345399 151.354214 177.904337 351.93017 71.055958 536.533742-132.098323 228.205891-135.893086 417.181594-135.915124 419.06355a17.633971 17.633971 0 0 1-17.625156 17.426824zM141.682207 739.608689c59.557074 0 114.51724 15.646238 163.351133 46.511197 209.020518 132.080693 395.915932 198.398705 570.673392 202.387394 3.838838-53.373505 24.857685-220.127143 139.802442-418.706551 53.964095-93.233949 71.866917-187.556523 53.210432-280.349733-18.577153-92.405359-69.015335-161.768879-110.942846-205.670901-37.229232 12.680064-163.747797 51.275587-324.401607 51.284402h-0.057296c-141.256881 0.004407-269.732328-29.83363-382.394057-88.73841-6.174755 65.837607-31.883066 234.477608-137.528228 386.559041-93.718762 134.910238-80.337923 272.848354-71.553993 321.497136 20.860182-6.377495 56.551234-14.773575 99.840628-14.773575z" fill="#6E6E96" p-id="2160"></path><path d="M82.583502 581.193835s-75.626422 162.169951 109.483999 87.244304c77.887414-31.52166 114.592166 22.036955 185.110422 114.592166 198.332594 193.925203 237.999113 26.444346 409.887362 136.629121 61.703474 4.407391 51.183032-265.047272 207.147376-401.07258 112.886505-238.602926-88.14782-405.479971-145.443903-392.257798-11.763327 82.374138-198.332594 114.592166-506.849963 0-111.097105-131.437214-109.56774 349.457624-259.335293 454.864787z" fill="#EBA967" opacity=".47" p-id="2161"></path><path d="M183.243904 553.845974s17.66923 23.028618 88.385819 23.028618c70.707774 0 136.223641 54.559093 145.139793 103.265171 35.003499 191.404176 32.244472 88.121375 302.990501 50.777551 184.652053-25.443868 41.82614-178.662408 200.7214-224.058536 196.053973-56.013532-94.534129-448.205219-117.880079-284.827642-9.899 69.319445-259.969957 182.131025-424.863677-12.962137C284.243676 98.461115 309.277657 465.151637 183.243904 553.845974z" fill="#B86B1D" opacity=".63" p-id="2162"></path><path d="M243.629568 421.694762a189.610368 153.478576 0 1 0 379.220736 0 189.610368 153.478576 0 1 0-379.220736 0Z" fill="#381600" opacity=".23" p-id="2163"></path><path d="M243.629568 421.694762a189.610368 153.478576 0 1 0 379.220736 0 189.610368 153.478576 0 1 0-379.220736 0Z" fill="#381600" opacity=".61" p-id="2164"></path><path d="M567.51551 416.917151a166.625824 134.861757 0 1 0 333.251647 0 166.625824 134.861757 0 1 0-333.251647 0Z" fill="#381600" opacity=".23" p-id="2165"></path><path d="M567.51551 416.917151a166.625824 134.861757 0 1 0 333.251647 0 166.625824 134.861757 0 1 0-333.251647 0Z" fill="#381600" opacity=".61" p-id="2166"></path><path d="M393.000456 585.636485a189.614775 153.478576 0 1 0 379.229551 0 189.614775 153.478576 0 1 0-379.229551 0Z" fill="#381600" opacity=".23" p-id="2167"></path><path d="M393.000456 585.636485a189.614775 153.478576 0 1 0 379.229551 0 189.614775 153.478576 0 1 0-379.229551 0Z" fill="#381600" opacity=".61" p-id="2168"></path><path d="M403.666343 346.689783m-178.93126 0a178.931259 178.931259 0 1 0 357.862519 0 178.931259 178.931259 0 1 0-357.862519 0Z" fill="#81AB29" p-id="2169"></path><path d="M403.666343 543.250606c-108.382152 0-196.560823-88.174264-196.560824-196.560823s88.174264-196.560823 196.560824-196.560824 196.560823 88.178671 196.560823 196.560824-88.178671 196.560823-196.560823 196.560823z m0-357.862519c-88.94115 0-161.301695 72.360545-161.301696 161.301696s72.356138 161.301695 161.301696 161.301695 161.301695-72.356138 161.301695-161.301695-72.360545-161.301695-161.301695-161.301696z" fill="#6E6E96" p-id="2170"></path><path d="M382.083349 179.530665c73.907539 0 170.226662 69.504556 133.80839 133.803983-45.559201 80.452515-53.408764 111.841954-133.80839 133.799575C310.798207 466.610484 248.279366 387.233372 248.279366 313.334648c0-73.898725 59.905258-133.803983 133.803983-133.803983z" fill="#97C72F" p-id="2171"></path><path d="M360.451874 221.127621c35.96431 0 57.331342 15.033611 57.331342 51.006736s-25.950718 35.325239-65.132424 65.128016c-28.634819 21.772511-57.331342-15.029203-57.331342-51.006736 0.004407-35.968718 29.163706-65.128017 65.132424-65.128016z" fill="#FAFFF0" opacity=".59" p-id="2172"></path><path d="M687.943061 326.856523m-185.542346 0a185.542346 185.542346 0 1 0 371.084692 0 185.542346 185.542346 0 1 0-371.084692 0Z" fill="#81AB29" p-id="2173"></path><path d="M687.943061 530.028433c-112.027064 0-203.17191-91.140438-203.171909-203.17191s91.144846-203.17191 203.171909-203.17191 203.17191 91.144846 203.17191 203.17191-91.144846 203.17191-203.17191 203.17191z m0-371.084692c-92.586062 0-167.912782 75.326719-167.912782 167.912782s75.326719 167.912782 167.912782 167.912782 167.912782-75.322312 167.912782-167.912782-75.326719-167.912782-167.912782-167.912782z" fill="#6E6E96" p-id="2174"></path><path d="M687.943061 326.856523m-185.542346 0a185.542346 185.542346 0 1 0 371.084692 0 185.542346 185.542346 0 1 0-371.084692 0Z" fill="#81AB29" opacity=".61" p-id="2175"></path><path d="M687.943061 530.028433c-112.027064 0-203.17191-91.140438-203.171909-203.17191s91.144846-203.17191 203.171909-203.17191 203.17191 91.144846 203.17191 203.17191-91.144846 203.17191-203.17191 203.17191z m0-371.084692c-92.586062 0-167.912782 75.326719-167.912782 167.912782s75.326719 167.912782 167.912782 167.912782 167.912782-75.322312 167.912782-167.912782-75.326719-167.912782-167.912782-167.912782z" fill="#6E6E96" opacity=".61" p-id="2176"></path><path d="M665.56233 153.52265c76.631307 0 135.818161 62.175065 138.749076 138.749076 4.782019 124.949535-55.378868 115.976086-138.749076 138.744668-73.916354 20.190258-138.744668-62.117769-138.744668-138.744668 0-76.631307 62.117769-138.749076 138.744668-138.749076z" fill="#97C72F" p-id="2177"></path><path d="M643.137525 196.653378c37.29975 0 59.44689 15.588942 59.446889 52.888692s-26.902715 36.629827-67.538859 67.53886c-29.692593 22.579064-59.44689-15.584535-59.44689-52.888692-0.004407-37.29975 30.23911-67.53886 67.53886-67.53886z" fill="#FAFFF0" opacity=".59" p-id="2178"></path><path d="M571.1472 505.355858m-192.153432 0a192.153432 192.153432 0 1 0 384.306864 0 192.153432 192.153432 0 1 0-384.306864 0Z" fill="#81AB29" p-id="2179"></path><path d="M571.1472 715.138854c-115.676384 0-209.782996-94.11102-209.782996-209.782996 0-115.676384 94.106612-209.782996 209.782996-209.782996 115.671976 0 209.782996 94.11102 209.782996 209.782996 0 115.671976-94.11102 209.782996-209.782996 209.782996z m0-384.306864c-96.230975 0-174.523868 78.292894-174.523868 174.523868s78.288486 174.523868 174.523868 174.523868c96.230975 0 174.523868-78.292894 174.523868-174.523868s-78.292894-174.523868-174.523868-174.523868z" fill="#6E6E96" p-id="2180"></path><path d="M571.1472 505.355858m-192.153432 0a192.153432 192.153432 0 1 0 384.306864 0 192.153432 192.153432 0 1 0-384.306864 0Z" fill="#81AB29" opacity=".61" p-id="2181"></path><path d="M571.1472 715.138854c-115.676384 0-209.782996-94.11102-209.782996-209.782996 0-115.676384 94.106612-209.782996 209.782996-209.782996 115.671976 0 209.782996 94.11102 209.782996 209.782996 0 115.671976-94.11102 209.782996-209.782996 209.782996z m0-384.306864c-96.230975 0-174.523868 78.292894-174.523868 174.523868s78.288486 174.523868 174.523868 174.523868c96.230975 0 174.523868-78.292894 174.523868-174.523868s-78.292894-174.523868-174.523868-174.523868z" fill="#6E6E96" opacity=".61" p-id="2182"></path><path d="M547.968731 325.847231c79.359482 0 182.805356 74.639166 143.694168 143.694168-48.926447 86.398086-57.353379 120.110219-143.694168 143.694168-76.551974 20.904255-143.698576-64.334686-143.698576-143.694168 0.008815-79.36389 64.339094-143.694168 143.698576-143.694168z" fill="#97C72F" p-id="2183"></path><path d="M524.74178 370.511731c38.639597 0 61.566845 16.144273 61.566845 54.775055s-27.845896 37.934414-69.93648 69.945295c-30.759182 23.385617-61.575659-16.144273-61.57566-54.775055 0-38.626375 31.31892-69.945295 69.945295-69.945295z" fill="#FAFFF0" opacity=".59" p-id="2184"></path></svg>