<?xml version="1.0" standalone="no"?><!DOCTYPE svg PUBLIC "-//W3C//DTD SVG 1.1//EN" "http://www.w3.org/Graphics/SVG/1.1/DTD/svg11.dtd"><svg t="1716628049140" class="icon" viewBox="0 0 1024 1024" version="1.1" xmlns="http://www.w3.org/2000/svg" p-id="22560" xmlns:xlink="http://www.w3.org/1999/xlink" width="200" height="200"><path d="M665.6 235.52H358.4c-84.48 0-153.6 69.12-153.6 153.6v245.76c0 84.48 69.12 153.6 153.6 153.6h307.2c84.48 0 153.6-69.12 153.6-153.6V389.12c0-84.48-69.12-153.6-153.6-153.6z" fill="#CCDAFF" p-id="22561"></path><path d="M704 458.24l-155.136 132.608c-19.968 17.408-53.248 17.408-73.216 0L320 458.24c-9.216-7.68-10.24-21.504-2.56-30.72 7.68-9.216 20.992-10.24 30.208-2.56l146.432 124.928c10.752 9.216 26.112 9.216 36.864 0 43.008-36.352 145.92-124.928 145.92-124.928 9.216-7.68 22.528-6.656 30.208 2.56 7.168 9.216 6.144 23.04-3.072 30.72z" fill="#7A7AF9" p-id="22562"></path></svg>