<?xml version="1.0" standalone="no"?><!DOCTYPE svg PUBLIC "-//W3C//DTD SVG 1.1//EN" "http://www.w3.org/Graphics/SVG/1.1/DTD/svg11.dtd">
<svg t="1715773304320" class="icon" viewBox="0 0 1024 1024" version="1.1" xmlns="http://www.w3.org/2000/svg" p-id="6991"
     width="200" height="200"><path d="M512 72l-54.3 251.3H347.1zM385.3 431.1l-162 80.9 123.8-188.7zM385.3 592.9l-38.2 107.8L223.3 512zM512 952L347.1 700.7h110.6z" fill="#53E0BB" p-id="6992"></path><path d="M676.9 700.7L512 952l54.3-251.3zM800.7 512L676.9 700.7l-38.2-107.8zM800.7 512l-162-80.9 38.2-107.8zM676.9 323.3H566.3L512 72z" fill="#31C6B8" p-id="6993"></path><path d="M512 323.3v377.4h-54.3l-72.4-107.8V431.1l72.4-107.8z" fill="#83F2C3" p-id="6994"></path><path d="M638.7 431.1v161.8l-72.4 107.8H512V323.3h54.3zM385.3 431.1v161.8l-162-80.9zM457.7 323.3l-72.4 107.8-38.2-107.8z" fill="#6FECC6" p-id="6995"></path><path d="M676.9 323.3l-38.2 107.8-72.4-107.8zM800.7 512l-162 80.9V431.1z" fill="#53E0BB" p-id="6996"></path><path d="M457.7 700.7H347.1l38.2-107.8z" fill="#6FECC6" p-id="6997"></path><path d="M676.9 700.7H566.3l72.4-107.8z" fill="#53E0BB" p-id="6998"></path><path d="M512 72v251.3h-54.3zM512 700.7V952l-54.3-251.3z" fill="#6FECC6" p-id="6999"></path><path d="M566.3 700.7L512 952V700.7zM566.3 323.3H512V72z" fill="#53E0BB" p-id="7000"></path><path d="M692.2 432.1c-20.7-4.7-36.9-21-41.6-41.6-0.4-1.6-2.4-1.6-2.8 0-4.7 20.7-21 36.9-41.6 41.6-1.6 0.4-1.6 2.4 0 2.8 20.7 4.7 36.9 21 41.6 41.6 0.4 1.6 2.4 1.6 2.8 0 4.7-20.7 21-36.9 41.6-41.6 1.5-0.4 1.5-2.5 0-2.8zM620.4 328.8c-16.2-4.2-29-17-33.2-33.2-0.4-1.6-2.5-1.6-3 0-4.2 16.2-17 29-33.2 33.2-1.6 0.4-1.6 2.5 0 3 16.2 4.2 29 17 33.2 33.2 0.4 1.6 2.5 1.6 3 0 4.2-16.2 17-29 33.2-33.2 1.6-0.5 1.6-2.6 0-3z" fill="#FFFFFF" p-id="7001"></path></svg>