<?xml version="1.0" standalone="no"?><!DOCTYPE svg PUBLIC "-//W3C//DTD SVG 1.1//EN" "http://www.w3.org/Graphics/SVG/1.1/DTD/svg11.dtd">
<svg t="1715773292653" class="icon" viewBox="0 0 1024 1024" version="1.1" xmlns="http://www.w3.org/2000/svg" p-id="6085"
     width="200" height="200"><path d="M512 333.4v357.2H333.4l-0.1-357.1z" fill="#83F2C3" p-id="6086"></path><path d="M512 269v64.4H333.4zM512 215v54l-297-54z" fill="#6FECC6" p-id="6087"></path><path d="M333.4 333.4L215 215l297 54z" fill="#53E0BB" p-id="6088"></path><path d="M690.6 333.4L809 215l-297 54z" fill="#31C6B8" p-id="6089"></path><path d="M512 690.6V755l-178.6-64.4z" fill="#6FECC6" p-id="6090"></path><path d="M512 755v54H215z" fill="#53E0BB" p-id="6091"></path><path d="M333.4 690.6L215 809l297-54z" fill="#31C6B8" p-id="6092"></path><path d="M690.6 690.6L809 809l-297-54z" fill="#00B3B2" p-id="6093"></path><path d="M755 512l-64.4-178.6v357.2z" fill="#53E0BB" p-id="6094"></path><path d="M809 215l-54 297 54 297z" fill="#6FECC6" p-id="6095"></path><path d="M690.6 333.4L809 215l-54 297z" fill="#00B3B2" p-id="6096"></path><path d="M690.6 690.6L809 809l-54-297z" fill="#31C6B8" p-id="6097"></path><path d="M269 512l64.4-178.6v357.2zM215 215l54 297-54 297z" fill="#6FECC6" p-id="6098"></path><path d="M333.4 333.4L215 215l54 297z" fill="#31C6B8" p-id="6099"></path><path d="M333.4 690.6L215 809l54-297z" fill="#53E0BB" p-id="6100"></path><path d="M809 215l-297 54v-54z" fill="#6FECC6" p-id="6101"></path><path d="M690.6 333.4H512V269z" fill="#53E0BB" p-id="6102"></path><path d="M512 269z" fill="#83CAFA" p-id="6103"></path><path d="M690.6 333.4l-0.1 357.2H512V333.4z" fill="#6FECC6" p-id="6104"></path><path d="M690.6 333.4H512z" fill="#83CAFA" p-id="6105"></path><path d="M690.6 690.6L512 755v-64.4z" fill="#53E0BB" p-id="6106"></path><path d="M809 809H512v-54z" fill="#31C6B8" p-id="6107"></path><path d="M512 755z" fill="#83CAFA" p-id="6108"></path><path d="M709.6 335.9c-20.7-4.7-36.9-21-41.6-41.6-0.4-1.6-2.4-1.6-2.8 0-4.7 20.7-21 36.9-41.6 41.6-1.6 0.4-1.6 2.4 0 2.8 20.7 4.7 36.9 21 41.6 41.6 0.4 1.6 2.4 1.6 2.8 0 4.7-20.7 21-36.9 41.6-41.6 1.5-0.4 1.5-2.5 0-2.8zM562.5 269.3c-16.2-4.2-29-17-33.2-33.2-0.4-1.6-2.5-1.6-3 0-4.2 16.2-17 29-33.2 33.2-1.6 0.4-1.6 2.5 0 3 16.2 4.2 29 17 33.2 33.2 0.4 1.6 2.5 1.6 3 0 4.2-16.2 17-29 33.2-33.2 1.6-0.5 1.6-2.6 0-3z" fill="#FFFFFF" p-id="6109"></path></svg>