<?xml version="1.0" standalone="no"?><!DOCTYPE svg PUBLIC "-//W3C//DTD SVG 1.1//EN" "http://www.w3.org/Graphics/SVG/1.1/DTD/svg11.dtd"><svg t="1715773306312" class="icon" viewBox="0 0 1024 1024" version="1.1" xmlns="http://www.w3.org/2000/svg" p-id="7164" xmlns:xlink="http://www.w3.org/1999/xlink" width="200" height="200"><path d="M510 222.9v601.7L352 724.3v-401z" fill="#EBF2FF" p-id="7165"></path><path d="M672.1 323.3v401L512 825.9l-2-1.3V222.9l2-1.2z" fill="#D8E5FE" p-id="7166"></path><path d="M352 323.3l-71.6 153.9L213 245z" fill="#EBF2FF" p-id="7167"></path><path d="M512 221.7l-78.5-28.6L512 72z" fill="#BCD6FD" p-id="7168"></path><path d="M512 72l-78.5 121.1-81.5-29.6z" fill="#B0C5FD" p-id="7169"></path><path d="M433.5 193.1L352 323.3 213 245l139-81.5z" fill="#BCD6FD" p-id="7170"></path><path d="M352 724.3l-139 52.3v-155l67.4-144.4z" fill="#B0C5FD" p-id="7171"></path><path d="M512 825.9V952l-72.4-102.1z" fill="#BCD6FD" p-id="7172"></path><path d="M512 952l-137.6-80.6 65.1-21.5h0.1z" fill="#B0C5FD" p-id="7173"></path><path d="M439.6 849.9h-0.1L352 724.3z" p-id="7174"></path><path d="M512 221.7L352 323.3l81.5-130.2zM280.4 477.2L213 621.6V245zM512 825.9l-72.4 24L352 724.3z" fill="#D8E5FE" p-id="7175"></path><path d="M439.5 849.9l-65.1 21.5L213 776.6l139-52.3z" fill="#BCD6FD" p-id="7176"></path><path d="M352 323.3v401l-71.6-247.1z" fill="#D8E5FE" p-id="7177"></path><path d="M672 323.3l71.6 153.9L811 245z" fill="#EBF2FF" p-id="7178"></path><path d="M512 221.7l78.5-28.6L512 72z" fill="#B0C5FD" p-id="7179"></path><path d="M512 72l78.5 121.1 81.5-29.6z" fill="#97B7FC" p-id="7180"></path><path d="M590.5 193.1L672 323.3 811 245l-139-81.5z" fill="#B0C5FD" p-id="7181"></path><path d="M672 724.3l139 52.3v-155l-67.4-144.4z" fill="#97B7FC" p-id="7182"></path><path d="M512 825.9V952l72.4-102.1z" fill="#B0C5FD" p-id="7183"></path><path d="M512 952l137.6-80.6-65.1-21.5h-0.1z" fill="#97B7FC" p-id="7184"></path><path d="M584.4 849.9h0.1L672 724.3z" p-id="7185"></path><path d="M512 221.7l160 101.6-81.5-130.2zM743.6 477.2L811 621.6V245zM512 825.9l72.4 24L672 724.3z" fill="#BCD6FD" p-id="7186"></path><path d="M584.5 849.9l65.1 21.5L811 776.6l-139-52.3z" fill="#B0C5FD" p-id="7187"></path><path d="M672 323.3v401l71.6-247.1z" fill="#BCD6FD" p-id="7188"></path><path d="M703.7 320.8c-20.7-4.7-36.9-21-41.6-41.6-0.4-1.6-2.4-1.6-2.8 0-4.7 20.7-21 36.9-41.6 41.6-1.6 0.4-1.6 2.4 0 2.8 20.7 4.7 36.9 21 41.6 41.6 0.4 1.6 2.4 1.6 2.8 0 4.7-20.7 21-36.9 41.6-41.6 1.5-0.4 1.5-2.5 0-2.8zM615.4 404.4c-16.2-4.2-29-17-33.2-33.2-0.4-1.6-2.5-1.6-3 0-4.2 16.2-17 29-33.2 33.2-1.6 0.4-1.6 2.5 0 3 16.2 4.2 29 17 33.2 33.2 0.4 1.6 2.5 1.6 3 0 4.2-16.2 17-29 33.2-33.2 1.6-0.5 1.6-2.6 0-3z" fill="#FFFFFF" p-id="7189"></path></svg>