<?xml version="1.0" standalone="no"?><!DOCTYPE svg PUBLIC "-//W3C//DTD SVG 1.1//EN" "http://www.w3.org/Graphics/SVG/1.1/DTD/svg11.dtd">
<svg t="1715773217330" class="icon" viewBox="0 0 1024 1024" version="1.1" xmlns="http://www.w3.org/2000/svg" p-id="3061"
     width="200" height="200"><path d="M717.3 630.5L875.7 722 512 932 148.3 722V302l158.4 91.5v237L512 749z" fill="#82D2FF" p-id="3062"></path><path d="M717.3 393.5L512 275V92l363.7 210z" fill="#51B9F9" p-id="3063"></path><path d="M512 512z" fill="#82D2FF" p-id="3064"></path><path d="M512 92v183L306.7 393.5 148.3 302z" fill="#83CAFA" p-id="3065"></path><path d="M512 512z" fill="#82D2FF" p-id="3066"></path><path d="M306.7 393.5v237L148.3 722V302z" fill="#51B9F9" p-id="3067"></path><path d="M875.7 302v420l-158.4-91.5v-237zM512 749v183L148.3 722l158.4-91.5z" fill="#00A7F7" p-id="3068"></path><path d="M875.7 722L512 932V749l205.3-118.5z" fill="#0091EA" p-id="3069"></path><path d="M717.3 630.5v-237L512 275 306.7 393.5v237L512 749z" fill="#B0DBFA" p-id="3070"></path><path d="M717.3 630.5v-237L512 275v474z" fill="#83CAFA" p-id="3071"></path><path d="M839.5 344.8c-20.7-4.7-36.9-21-41.6-41.6-0.4-1.6-2.4-1.6-2.8 0-4.7 20.7-21 36.9-41.6 41.6-1.6 0.4-1.6 2.4 0 2.8 20.7 4.7 36.9 21 41.6 41.6 0.4 1.6 2.4 1.6 2.8 0 4.7-20.7 21-36.9 41.6-41.6 1.5-0.4 1.5-2.5 0-2.8zM749 393.5c-16.2-4.2-29-17-33.2-33.2-0.4-1.6-2.5-1.6-3 0-4.2 16.2-17 29-33.2 33.2-1.6 0.4-1.6 2.5 0 3 16.2 4.2 29 17 33.2 33.2 0.4 1.6 2.5 1.6 3 0 4.2-16.2 17-29 33.2-33.2 1.6-0.5 1.6-2.6 0-3z" fill="#FFFFFF" p-id="3072"></path></svg>