<?xml version="1.0" standalone="no"?><!DOCTYPE svg PUBLIC "-//W3C//DTD SVG 1.1//EN" "http://www.w3.org/Graphics/SVG/1.1/DTD/svg11.dtd">
<svg t="1715773300273" class="icon" viewBox="0 0 1024 1024" version="1.1" xmlns="http://www.w3.org/2000/svg" p-id="6642"
     width="200" height="200"><path d="M638.6 740.1l-0.2 0.1H385.6L284.2 638.9V386l101.4-101.5H512v454.9h126.4z" fill="#B0DBFA" p-id="6643"></path><path d="M512 112v172.5H385.6l-39.2-136.6c50.3-23 106.5-35.9 165.6-35.9zM638.6 740.1l-0.1 0.1H512V912c-59.1 0-115.3-12.9-165.8-35.9l39.2-136 0.1-0.7h252.9l0.2 0.7z" fill="#83CAFA" p-id="6644"></path><path d="M912 512c0 59.1-12.9 115.3-35.9 165.8l-136.3-39.2-0.4-0.1V385.6l136.7-39.4c23 50.5 35.9 106.7 35.9 165.8z" fill="#0091EA" p-id="6645"></path><path d="M284.6 385.6v252.9l-0.4 0.1-136.3 39.2C124.9 627.3 112 571.1 112 512c0-59.1 12.9-115.3 35.9-165.8l136.7 39.4z" fill="#00A7F7" p-id="6646"></path><path d="M677.7 147.9l-39.2 136.6H512V112c59.1 0 115.3 12.9 165.7 35.9z" fill="#51B9F9" p-id="6647"></path><path d="M739.8 386v252.9L638.6 740.1l-0.2-0.7H512V284.5h126.4z" fill="#83CAFA" p-id="6648"></path><path d="M677.8 876.1C627.3 899.1 571.1 912 512 912V740.2h126.4l0.1-0.1 39.3 136zM284.6 385.6l-136.7-39.4c40-87.6 110.6-158.3 198.4-198.3l39.2 136.6-100.9 101.1zM284.2 638.9l101.2 101.2-39.2 136c-87.6-40-158.3-110.6-198.3-198.3l136.3-39.2v0.3z" fill="#51B9F9" p-id="6649"></path><path d="M876.1 677.8c-40 87.6-110.6 158.3-198.3 198.3l-39.2-136 101.2-101.2v-0.3l136.3 39.2zM876.1 346.2l-136.7 39.4-101-101.1 39.2-136.6c87.8 40 158.5 110.7 198.5 198.3z" fill="#00A7F7" p-id="6650"></path><path d="M818.3 388c-20.7-4.7-36.9-21-41.6-41.6-0.4-1.6-2.4-1.6-2.8 0-4.7 20.7-21 36.9-41.6 41.6-1.6 0.4-1.6 2.4 0 2.8 20.7 4.7 36.9 21 41.6 41.6 0.4 1.6 2.4 1.6 2.8 0 4.7-20.7 21-36.9 41.6-41.6 1.5-0.4 1.5-2.5 0-2.8zM730 471.6c-16.2-4.2-29-17-33.2-33.2-0.4-1.6-2.5-1.6-3 0-4.2 16.2-17 29-33.2 33.2-1.6 0.4-1.6 2.5 0 3 16.2 4.2 29 17 33.2 33.2 0.4 1.6 2.5 1.6 3 0 4.2-16.2 17-29 33.2-33.2 1.6-0.5 1.6-2.6 0-3z" fill="#FFFFFF" p-id="6651"></path></svg>