<?xml version="1.0" standalone="no"?><!DOCTYPE svg PUBLIC "-//W3C//DTD SVG 1.1//EN" "http://www.w3.org/Graphics/SVG/1.1/DTD/svg11.dtd"><svg t="1715773177294" class="icon" viewBox="0 0 1024 1024" version="1.1" xmlns="http://www.w3.org/2000/svg" p-id="1637" xmlns:xlink="http://www.w3.org/1999/xlink" width="200" height="200"><path d="M509.7 179.5v679.2L331.4 745.5V292.9z" fill="#EBF2FF" p-id="1638"></path><path d="M692.7 292.9v452.6L512 860.1l-2.3-1.4V179.5l2.3-1.3z" fill="#D8E5FE" p-id="1639"></path><path d="M331.4 292.9l-80.8 173.7-76.1-262.1zM512 112.5v65.7l-88.6-32.3-92-33.4z" fill="#EBF2FF" p-id="1640"></path><path d="M174.5 204.5l156.9-92v180.4zM331.4 745.5l-156.9 59V629.6l76.1-163zM512 860.1v51.4H356.7l73.5-24.3h0.1z" fill="#BCD6FD" p-id="1641"></path><path d="M430.3 887.2h-0.1l-98.8-141.7z" p-id="1642"></path><path d="M512 178.2L331.4 292.9V112.5zM250.6 466.6l-76.1 163V204.5zM512 860.1l-155.3 51.4-25.3-166z" fill="#D8E5FE" p-id="1643"></path><path d="M331.4 745.5l25.3 166-182.2-107z" fill="#B0C5FD" p-id="1644"></path><path d="M331.4 292.9v452.6l-80.8-278.9z" fill="#D8E5FE" p-id="1645"></path><path d="M692.6 292.9l80.8 173.7 76.1-262.1zM692.6 112.5l-92 33.4-88.6 32.3v-65.7z" fill="#D8E5FE" p-id="1646"></path><path d="M692.6 292.9V112.5l156.9 92zM692.6 745.5l156.9 59V629.6l-76.1-163zM667.3 911.5H512v-51.4l81.7 27.1h0.1z" fill="#B0C5FD" p-id="1647"></path><path d="M692.5 745.6l-98.7 141.6h-0.1z" p-id="1648"></path><path d="M512 178.2l180.6 114.7V112.5zM773.4 466.6l76.1 163V204.5zM692.6 745.5l-0.1 0.1-25.2 165.9L512 860.1z" fill="#BCD6FD" p-id="1649"></path><path d="M849.5 804.5l-182.2 107 25.2-165.9 0.1-0.1h0.1z" fill="#97B7FC" p-id="1650"></path><path d="M692.6 292.9v452.6l80.8-278.9z" fill="#BCD6FD" p-id="1651"></path><path d="M743.8 286.2c-20.7-4.7-36.9-21-41.6-41.6-0.4-1.6-2.4-1.6-2.8 0-4.7 20.7-21 36.9-41.6 41.6-1.6 0.4-1.6 2.4 0 2.8 20.7 4.7 36.9 21 41.6 41.6 0.4 1.6 2.4 1.6 2.8 0 4.7-20.7 21-36.9 41.6-41.6 1.5-0.4 1.5-2.5 0-2.8zM601.1 203c-16.2-4.2-29-17-33.2-33.2-0.4-1.6-2.5-1.6-3 0-4.2 16.2-17 29-33.2 33.2-1.6 0.4-1.6 2.5 0 3 16.2 4.2 29 17 33.2 33.2 0.4 1.6 2.5 1.6 3 0 4.2-16.2 17-29 33.2-33.2 1.6-0.5 1.6-2.6 0-3z" fill="#FFFFFF" p-id="1652"></path></svg>