<?xml version="1.0" standalone="no"?><!DOCTYPE svg PUBLIC "-//W3C//DTD SVG 1.1//EN" "http://www.w3.org/Graphics/SVG/1.1/DTD/svg11.dtd">
<svg t="1715773295159" class="icon" viewBox="0 0 1024 1024" version="1.1" xmlns="http://www.w3.org/2000/svg" p-id="6272"
     width="200" height="200"><path d="M512 333.4v357.2H273.4l-0.1-357.1z" fill="#EABFFF" p-id="6273"></path><path d="M512 269v64.4H273.4zM512 215v54l-12.7-1.8-251.9-36.1c23.4-10.4 49.2-16.1 76.4-16.1H512z" fill="#CB9AFF" p-id="6274"></path><path d="M512 269l-238.6 64.4-83.1-63.1c16.4-16.4 35.7-29.7 57.1-39.2l251.9 36.1L512 269z" fill="#A180FF" p-id="6275"></path><path d="M833.7 270.3l-83.1 63.1L512 269l37.5-5.4 227.1-32.5c21.4 9.5 40.7 22.9 57.1 39.2z" fill="#8A73FF" p-id="6276"></path><path d="M512 690.6V755l-238.6-64.4z" fill="#CB9AFF" p-id="6277"></path><path d="M512 755v54H323.9c-27.2 0-53.1-5.8-76.4-16.1L512 755z" fill="#A180FF" p-id="6278"></path><path d="M512 755l-264.5 37.9c-21.4-9.5-40.8-22.9-57.1-39.2l83.1-63.1L512 755z" fill="#B68DFF" p-id="6279"></path><path d="M833.7 753.7a189.31 189.31 0 0 1-57.1 39.2L512 755l238.6-64.4 83.1 63.1z" fill="#A180FF" p-id="6280"></path><path d="M835 512l-84.4-178.6v357.2zM889 403.9v216.2c0 29.8-6.9 58.1-19.2 83.1L835 512l34.8-191.2c12.3 25 19.2 53.3 19.2 83.1z" fill="#B68DFF" p-id="6281"></path><path d="M869.8 320.8L835 512l-84.4-178.6 83.1-63.1c14.6 14.7 26.8 31.7 36.1 50.5z" fill="#A180FF" p-id="6282"></path><path d="M869.8 703.2c-9.2 18.8-21.5 35.8-36.1 50.4l-83.1-63.1L835 512l34.8 191.2z" fill="#8A73FF" p-id="6283"></path><path d="M189 512l84.4-178.6v357.2zM189 512l-34.8 191.2c-12.3-25.1-19.2-53.3-19.2-83.1V403.9c0-29.8 6.9-58.1 19.2-83.1L189 512z" fill="#CB9AFF" p-id="6284"></path><path d="M273.4 333.4l-0.1 0.3L189 512l-34.8-191.2c9.2-18.8 21.5-35.8 36.1-50.4l83.1 63z" fill="#B68DFF" p-id="6285"></path><path d="M273.4 690.6l-83.1 63.1c-14.6-14.6-26.9-31.7-36.1-50.4L189 512l84.4 178.6z" fill="#A180FF" p-id="6286"></path><path d="M776.5 231.1l-227.1 32.5L512 269v-54h188.1c27.2 0 53.1 5.8 76.4 16.1z" fill="#B68DFF" p-id="6287"></path><path d="M512 269z" fill="#83CAFA" p-id="6288"></path><path d="M750.6 333.4l-0.1 357.2H512V333.4z" fill="#CB9AFF" p-id="6289"></path><path d="M750.6 690.6L512 755v-64.4z" fill="#B68DFF" p-id="6290"></path><path d="M776.5 792.9c-23.4 10.4-49.2 16.1-76.4 16.1H512v-54l264.5 37.9z" fill="#8A73FF" p-id="6291"></path><path d="M512 755z" fill="#83CAFA" p-id="6292"></path><path d="M750.6 333.4H512V269z" fill="#B68DFF" p-id="6293"></path><path d="M805.1 332c-20.7-4.7-36.9-21-41.6-41.6-0.4-1.6-2.4-1.6-2.8 0-4.7 20.7-21 36.9-41.6 41.6-1.6 0.4-1.6 2.4 0 2.8 20.7 4.7 36.9 21 41.6 41.6 0.4 1.6 2.4 1.6 2.8 0 4.7-20.7 21-36.9 41.6-41.6 1.5-0.4 1.5-2.5 0-2.8zM657.4 287.7c-16.2-4.2-29-17-33.2-33.2-0.4-1.6-2.5-1.6-3 0-4.2 16.2-17 29-33.2 33.2-1.6 0.4-1.6 2.5 0 3 16.2 4.2 29 17 33.2 33.2 0.4 1.6 2.5 1.6 3 0 4.2-16.2 17-29 33.2-33.2 1.6-0.5 1.6-2.6 0-3z" fill="#FFFFFF" p-id="6294"></path></svg>