<?xml version="1.0" standalone="no"?><!DOCTYPE svg PUBLIC "-//W3C//DTD SVG 1.1//EN" "http://www.w3.org/Graphics/SVG/1.1/DTD/svg11.dtd"><svg t="1715773311135" class="icon" viewBox="0 0 1024 1024" version="1.1" xmlns="http://www.w3.org/2000/svg" p-id="7540" xmlns:xlink="http://www.w3.org/1999/xlink" width="200" height="200"><path d="M512 440.4l-207.1 51.1 15.9 235z" fill="#B5E668" p-id="7541"></path><path d="M512 623.2V440.4L320.8 726.5z" fill="#EAFF8B" p-id="7542"></path><path d="M512 623.1v103.3H320.8z" fill="#B5E668" p-id="7543"></path><path d="M512 440.4V162.7L304.9 491.5z" fill="#EAFF8B" p-id="7544"></path><path d="M320.8 726.5L72 861.3l232.9-369.8zM512 726.4v134.9L320.8 726.4z" fill="#89CC5C" p-id="7545"></path><path d="M952 861.3L703.2 726.5 512 861.3z" fill="#218E21" p-id="7546"></path><path d="M512 861.3L320.8 726.5 72 861.3zM512 440.4l207.1 51.1-15.9 235z" fill="#64B350" p-id="7547"></path><path d="M512 440.4V162.7l207.1 328.8z" fill="#B5E668" p-id="7548"></path><path d="M703.2 726.5L952 861.3 719.1 491.5z" fill="#35A03A" p-id="7549"></path><path d="M703.3 726.4H512V623.1z" fill="#89CC5C" p-id="7550"></path><path d="M703.3 726.4L512 861.3V726.4z" fill="#64B350" p-id="7551"></path><path d="M703.2 726.5L512 623.2V440.4z" fill="#B5E668" p-id="7552"></path><path d="M634.1 529.9c-20.7-4.7-36.9-21-41.6-41.6-0.4-1.6-2.4-1.6-2.8 0-4.7 20.7-21 36.9-41.6 41.6-1.6 0.4-1.6 2.4 0 2.8 20.7 4.7 36.9 21 41.6 41.6 0.4 1.6 2.4 1.6 2.8 0 4.7-20.7 21-36.9 41.6-41.6 1.5-0.4 1.5-2.5 0-2.8zM559.7 443.8c-16.2-4.2-29-17-33.2-33.2-0.4-1.6-2.5-1.6-3 0-4.2 16.2-17 29-33.2 33.2-1.6 0.4-1.6 2.5 0 3 16.2 4.2 29 17 33.2 33.2 0.4 1.6 2.5 1.6 3 0 4.2-16.2 17-29 33.2-33.2 1.6-0.5 1.6-2.6 0-3z" fill="#FFFFFF" p-id="7553"></path></svg>