<?xml version="1.0" standalone="no"?><!DOCTYPE svg PUBLIC "-//W3C//DTD SVG 1.1//EN" "http://www.w3.org/Graphics/SVG/1.1/DTD/svg11.dtd"><svg t="1715773234086" class="icon" viewBox="0 0 1024 1024" version="1.1" xmlns="http://www.w3.org/2000/svg" p-id="3419" xmlns:xlink="http://www.w3.org/1999/xlink" width="200" height="200"><path d="M512 272.2v479.6L365.3 609.9V414.2z" fill="#EABFFF" p-id="3420"></path><path d="M658.8 414.2v195.7L512 751.8V272.2zM512 272.2V72L253.5 339.7l111.7 74.4z" fill="#CB9AFF" p-id="3421"></path><path d="M365.2 609.9l-111.7 74.4V339.7l111.7 74.4z" fill="#B68DFF" p-id="3422"></path><path d="M512 751.8V952L253.5 684.3l111.7-74.4z" fill="#A180FF" p-id="3423"></path><path d="M512 272.2V72l258.5 267.7-111.7 74.4z" fill="#B68DFF" p-id="3424"></path><path d="M658.8 609.9l111.7 74.4V339.7l-111.7 74.4z" fill="#A180FF" p-id="3425"></path><path d="M512 751.8V952l258.5-267.7-111.7-74.4z" fill="#8A73FF" p-id="3426"></path><path d="M694.1 404.2c-20.7-4.7-36.9-21-41.6-41.6-0.4-1.6-2.4-1.6-2.8 0-4.7 20.7-21 36.9-41.6 41.6-1.6 0.4-1.6 2.4 0 2.8 20.7 4.7 36.9 21 41.6 41.6 0.4 1.6 2.4 1.6 2.8 0 4.7-20.7 21-36.9 41.6-41.6 1.5-0.4 1.5-2.5 0-2.8zM598.8 318.9c-16.2-4.2-29-17-33.2-33.2-0.4-1.6-2.5-1.6-3 0-4.2 16.2-17 29-33.2 33.2-1.6 0.4-1.6 2.5 0 3 16.2 4.2 29 17 33.2 33.2 0.4 1.6 2.5 1.6 3 0 4.2-16.2 17-29 33.2-33.2 1.6-0.5 1.6-2.6 0-3z" fill="#FFFFFF" p-id="3427"></path></svg>