<?xml version="1.0" standalone="no"?><!DOCTYPE svg PUBLIC "-//W3C//DTD SVG 1.1//EN" "http://www.w3.org/Graphics/SVG/1.1/DTD/svg11.dtd">
<svg t="1715773258806" class="icon" viewBox="0 0 1024 1024" version="1.1" xmlns="http://www.w3.org/2000/svg" p-id="5010"
     width="200" height="200"><path d="M701.8 518.4L566.9 766.5l-236.1-159 29.7-286 161.8-90.4 155.1 91.7z" fill="#83F2C3" p-id="5011"></path><path d="M647.3 239.1l-125-8V72l84.5 54.4z" fill="#31C6B8" p-id="5012"></path><path d="M796.1 248.6l-148.8-9.5-40.5-112.7z" fill="#00B3B2" p-id="5013"></path><path d="M796.1 248.6l-118.7 74.2-30.1-83.7z" fill="#31C6B8" p-id="5014"></path><path d="M429.2 215.6l-68.7 105.9-131-72.9 86.1-51.9z" fill="#53D9C1" p-id="5015"></path><path d="M522.3 72l-93.1 143.6-113.6-18.9z" fill="#31C6B8" p-id="5016"></path><path d="M522.3 72v159.1l-93.1-15.5z" fill="#53E0BB" p-id="5017"></path><path d="M522.3 231.1l-161.8 90.4 68.7-105.9z" fill="#6FECC6" p-id="5018"></path><path d="M677.4 322.8l-155.1-91.7 125 8zM360.5 321.5L281.6 433l-52.1-184.4z" fill="#53E0BB" p-id="5019"></path><path d="M330.8 607.5L189.2 674l12.1-127.6L281.6 433z" fill="#53D9C1" p-id="5020"></path><path d="M281.6 433l-80.3 113.4 28.2-297.8z" fill="#31C6B8" p-id="5021"></path><path d="M360.5 321.5l-29.7 286L281.6 433z" fill="#6FECC6" p-id="5022"></path><path d="M610.5 952l-94.2-62.2-106.1-161.6 156.7 38.3z" fill="#53D9C1" p-id="5023"></path><path d="M516.3 889.8L189.2 674 410 728.1h0.1v0.1h0.1z" fill="#31C6B8" p-id="5024"></path><path d="M410.1 728.1h-0.1l-79.2-120.6z" p-id="5025"></path><path d="M566.9 766.5l-156.7-38.3h-0.1v-0.1l-79.3-120.6z" fill="#6FECC6" p-id="5026"></path><path d="M701.8 518.4v136L566.9 766.5z" fill="#53E0BB" p-id="5027"></path><path d="M701.8 654.4V786l-91.3 166-43.6-185.5zM834.8 543.8l-133 110.6v-136z" fill="#31C6B8" p-id="5028"></path><path d="M834.8 543.8L701.8 786V654.4z" fill="#00B3B2" p-id="5029"></path><path d="M748.1 385.8l-46.3 132.6-24.4-195.6z" fill="#53E0BB" p-id="5030"></path><path d="M834.8 543.8l-133-25.4 46.3-132.6 74.8 66.8zM796.1 248.6l-48 137.2-70.7-63z" fill="#31C6B8" p-id="5031"></path><path d="M822.9 452.6l-74.8-66.8 48-137.2z" fill="#00B3B2" p-id="5032"></path><path d="M522.3 231.1l44.6 535.4 134.9-248.1-24.4-195.6z" fill="#6FECC6" p-id="5033"></path><path d="M410 728.1L189.2 674l141.6-66.5z" fill="#53E0BB" p-id="5034"></path><path d="M713.4 319.2c-20.7-4.7-36.9-21-41.6-41.6-0.4-1.6-2.4-1.6-2.8 0-4.7 20.7-21 36.9-41.6 41.6-1.6 0.4-1.6 2.4 0 2.8 20.7 4.7 36.9 21 41.6 41.6 0.4 1.6 2.4 1.6 2.8 0 4.7-20.7 21-36.9 41.6-41.6 1.5-0.4 1.5-2.5 0-2.8zM785.1 385c-16.2-4.2-29-17-33.2-33.2-0.4-1.6-2.5-1.6-3 0-4.2 16.2-17 29-33.2 33.2-1.6 0.4-1.6 2.5 0 3 16.2 4.2 29 17 33.2 33.2 0.4 1.6 2.5 1.6 3 0 4.2-16.2 17-29 33.2-33.2 1.6-0.5 1.6-2.6 0-3z" fill="#FFFFFF" p-id="5035"></path></svg>