<?xml version="1.0" standalone="no"?><!DOCTYPE svg PUBLIC "-//W3C//DTD SVG 1.1//EN" "http://www.w3.org/Graphics/SVG/1.1/DTD/svg11.dtd"><svg t="1715773231378" class="icon" viewBox="0 0 1024 1024" version="1.1" xmlns="http://www.w3.org/2000/svg" p-id="3235" xmlns:xlink="http://www.w3.org/1999/xlink" width="200" height="200"><path d="M512 270.4v483.2h-50.9L270.4 562.9V461.1l190.7-190.7z" fill="#EABFFF" p-id="3236"></path><path d="M932 423.5l-234.3-97.2L600.5 92z" fill="#CB9AFF" p-id="3237"></path><path d="M932 600.5L600.5 932l97.2-234.3z" fill="#8A73FF" p-id="3238"></path><path d="M423.5 932L92 600.5l234.3 97.2z" fill="#A180FF" p-id="3239"></path><path d="M423.5 92l-97.2 234.3L92 423.5z" fill="#EABFFF" p-id="3240"></path><path d="M512 92v178.4h-50.9L423.5 92z" fill="#CB9AFF" p-id="3241"></path><path d="M461.1 270.4l-134.8 55.9L423.5 92zM326.3 326.3l-55.9 134.8L92 423.5z" fill="#B68DFF" p-id="3242"></path><path d="M461.1 270.4L270.4 461.1l55.9-134.8zM270.4 461.1v101.8L92 600.5v-177z" fill="#CB9AFF" p-id="3243"></path><path d="M326.3 697.7L92 600.5l178.4-37.6z" fill="#B68DFF" p-id="3244"></path><path d="M461.1 753.6l-134.8-55.9-55.9-134.8z" fill="#CB9AFF" p-id="3245"></path><path d="M461.1 753.6L423.5 932l-97.2-234.3z" fill="#B68DFF" p-id="3246"></path><path d="M512 753.6V932h-88.5l37.6-178.4z" fill="#CB9AFF" p-id="3247"></path><path d="M697.7 697.7L600.5 932l-37.6-178.4z" fill="#A180FF" p-id="3248"></path><path d="M753.6 562.9l-55.9 134.8-134.8 55.9z" fill="#B68DFF" p-id="3249"></path><path d="M932 600.5l-234.3 97.2 55.9-134.8z" fill="#A180FF" p-id="3250"></path><path d="M932 423.5v177l-178.4-37.6V461.1z" fill="#B68DFF" p-id="3251"></path><path d="M932 423.5l-178.4 37.6-55.9-134.8zM697.7 326.3l-134.8-55.9L600.5 92z" fill="#A180FF" p-id="3252"></path><path d="M753.6 461.1L562.9 270.4l134.8 55.9zM600.5 92l-37.6 178.4H512V92z" fill="#B68DFF" p-id="3253"></path><path d="M753.6 461.1v101.8L562.9 753.6H512V270.4h50.9z" fill="#CB9AFF" p-id="3254"></path><path d="M600.5 932H512V753.6h50.9z" fill="#B68DFF" p-id="3255"></path><path d="M723.4 320.1c-20.7-4.7-36.9-21-41.6-41.6-0.4-1.6-2.4-1.6-2.8 0-4.7 20.7-21 36.9-41.6 41.6-1.6 0.4-1.6 2.4 0 2.8 20.7 4.7 36.9 21 41.6 41.6 0.4 1.6 2.4 1.6 2.8 0 4.7-20.7 21-36.9 41.6-41.6 1.5-0.4 1.5-2.5 0-2.8zM611.7 258.8c-16.2-4.2-29-17-33.2-33.2-0.4-1.6-2.5-1.6-3 0-4.2 16.2-17 29-33.2 33.2-1.6 0.4-1.6 2.5 0 3 16.2 4.2 29 17 33.2 33.2 0.4 1.6 2.5 1.6 3 0 4.2-16.2 17-29 33.2-33.2 1.6-0.5 1.6-2.6 0-3z" fill="#FFFFFF" p-id="3256"></path></svg>