<?xml version="1.0" standalone="no"?><!DOCTYPE svg PUBLIC "-//W3C//DTD SVG 1.1//EN" "http://www.w3.org/Graphics/SVG/1.1/DTD/svg11.dtd"><svg t="1715732269638" class="icon" viewBox="0 0 1024 1024" version="1.1" xmlns="http://www.w3.org/2000/svg" p-id="4234" xmlns:xlink="http://www.w3.org/1999/xlink" width="128" height="128"><path d="M890 258.6c-2.7-13.3-12.8-23.8-25.9-27L540.4 69.9c-17.1-8-36.8-8-53.9 0L162.9 231.7c-13.1 3.5-23.3 13.8-26.7 27h-0.2v647.2c0 29.8 24.1 53.9 53.9 53.9h647.2c29.8 0 53.9-24.1 53.9-53.9V258.6h-1z m-322.6-53.9H459.6c-14.9 0-27-12.1-27-27s12.1-27 27-27h107.9c14.9 0 27 12.1 27 27-0.1 14.9-12.2 27-27.1 27z" fill="#FFC95C" p-id="4235"></path><path d="M803.2 571.3L535.5 303.6c-12.3-12.3-32.3-12.3-44.6 0L223 571.3c-12.3 12.3-12.3 32.3 0 44.6l267.8 267.8c12.3 12.3 32.3 12.3 44.7 0l267.8-267.8c12.3-12.3 12.2-32.3-0.1-44.6zM439.1 714.6c0.4 7.9-0.9 15.8-3.8 23.1-2.8 5.4-7.6 9.4-13.5 11-9.1 2.4-18.4 3.5-27.8 3.2-5.6 0-14.1-0.4-25.6-1.3l-8.1-38c8.6 1.3 17.3 2 26 2 3.9 0.5 7.9-0.4 11.2-2.7 2-3.3 2.9-7.2 2.5-11v-68l-10.7 4-24.3 8.7-9-39.6c7.6-2.4 22.2-7.3 44-14.6v-53h-34v-39.3h34v-52h39v52h29.7v39.3h0.2-29.7V577c5.3-2.2 9.3-3.8 12-4.7 8-3.1 13.7-5.4 17-7l3.3 40.6c-6.5 2.7-17.3 6.9-32.4 12.7v96zM657.6 619H522.8c-0.4 48.2-14.7 95.3-41.3 135.6L445.9 730c9.3-12.9 17.3-26.8 23.6-41.5 5.7-14.1 9.4-29 11.2-44.1 2.4-21.8 3.4-43.7 3.2-65.6v-95.9h68.7c-3.8-10.9-8-22.1-12.6-33.7l39-10c5.1 11.8 10.5 26.3 16.3 43.7h62.5V619z" fill="#FFFFFF" p-id="4236"></path><path d="M523.9 521h95.3v59.3h-95.3z" fill="#FFFFFF" p-id="4237"></path></svg>